PathFileType	4	(X/Y/Z)	51_2_58_p0_0-231_filt_butterworth.trc
DataRate	CameraRate	NumFrames	NumMarkers	Units	OrigDataRate	OrigDataStartFrame	OrigNumFrames
54.0	54.0	5	27	m	54.0	28	231
Frame#	Time	RHip			RKnee			RAnkle			RBigToe			RSmallToe			RHeel			LHip			LKnee			LAnkle			LBigToe			LSmallToe			LHeel			Neck			Head			Nose			RShoulder			RElbow			RWrist			RThumb			RIndex			RPinky			LShoulder			LElbow			LWrist			LThumb			LIndex			LPinky			
		X1	Y1	Z1	X2	Y2	Z2	X3	Y3	Z3	X4	Y4	Z4	X5	Y5	Z5	X6	Y6	Z6	X7	Y7	Z7	X8	Y8	Z8	X9	Y9	Z9	X10	Y10	Z10	X11	Y11	Z11	X12	Y12	Z12	X13	Y13	Z13	X14	Y14	Z14	X15	Y15	Z15	X16	Y16	Z16	X17	Y17	Z17	X18	Y18	Z18	X19	Y19	Z19	X20	Y20	Z20	X21	Y21	Z21	X22	Y22	Z22	X23	Y23	Z23	X24	Y24	Z24	X25	Y25	Z25	X26	Y26	Z26	X27	Y27	Z27	
28	0.5185185185185185	0.09433472300281445	0.5079752332868687	0.5999249174199033	0.10088666175001793	0.608230188756107	1.0710699883491643	0.09262142250742103	0.6462652319177075	1.4820299021978898	0.055775455890655586	0.5202451869345867	1.5204344870547168	0.11198430858459199	0.5110060191055894	1.5118808632222345	0.06936714907426594	0.721553932924162	1.5525790387477645	-0.1096850538760692	0.49988854341645333	0.5920383621737364	-0.13398500807355568	0.5821707323186887	1.057559101586849	-0.13857668161086614	0.6342501765142355	1.4884076891813955	-0.10348436472517511	0.4934765065548965	1.508222835244347	-0.1614287211165205	0.5166463846107409	1.5093967239355606	-0.1333434080618458	0.6654744545303258	1.537999218951517	0.010084264234822433	0.44024209787537044	-0.009286478727245816	0.019477189745997818	0.3910616415511298	-0.23710311559618746	0.014800041006274342	0.3506751157848157	-0.11586652319915158	0.16180068991489865	0.47832081352881806	0.10722125069527469	0.1977105200912767	0.4229408943916647	0.3549219497791145	0.06474785944790928	0.3005315475596006	0.4468272631832375	-0.03829506531806052	0.25185097967145464	0.46442407106513034	-0.04686507320126051	0.2683158059685263	0.49273812224062097	-0.025036736859877	0.2747087900531261	0.5223102096530242	-0.14899879693514553	0.4720257759467556	0.09326819073261344	-0.20466850516259985	0.4092131117093896	0.34080670565825244	-0.045997794248943985	0.24453887674983382	0.4182342577623747	0.03617494696553456	0.23018034798396875	0.4394472628656829	0.03794495706578595	0.22971658665932343	0.46375272844634374	-0.0002945649638836918	0.240682873652395	0.4979278045053167
29	0.5370370370370371	0.0946447853762744	0.5077158088706982	0.5974093939242349	0.10141330054538533	0.6083662006476166	1.0763012034475197	0.09250510260192571	0.6462561932136135	1.486368441293493	0.05583746493793167	0.5205019606892363	1.5203974299999534	0.11193995668863307	0.5103335591405346	1.5119739529446734	0.07115825340187115	0.71307347844824	1.5536072051878544	-0.10307266010167465	0.5002212229326226	0.5865809191554768	-0.13443088317768725	0.581803055416146	1.055935302554481	-0.13853116570804658	0.6297549240819432	1.4891067687055923	-0.10306872180299405	0.49215182711097644	1.507800347346627	-0.16143335728400904	0.5169382750608177	1.5109471442176485	-0.13370888748489365	0.6653401467443414	1.5401231295458055	0.012505972552423467	0.4371251196363314	-0.01073080172761749	0.01988586363813436	0.3914246855493919	-0.23717475843021957	0.01554254935194126	0.3535533787803381	-0.1161054279625653	0.16462068919845704	0.4830280540816319	0.10810072704405888	0.20573704848201058	0.4171621642108819	0.3486155854418685	0.06734090368263086	0.28560440401662707	0.416996303565892	-0.021613221067537484	0.2385755622240892	0.39922988868100884	-0.04319824953894874	0.244252409301025	0.4361184875064594	-0.024145953874665834	0.23807265129249056	0.4783501447256232	-0.1488252808897391	0.4719034991866701	0.09221858847811149	-0.208954219540899	0.40464616947149723	0.3397676162732597	-0.04797159630686286	0.22856014411005754	0.3910177406018384	0.038528741642142345	0.20778953525455254	0.3878599061953827	0.042394141710943176	0.21138203626612895	0.4123655832742439	0.001024461809144786	0.20670312352770082	0.458433894066319
30	0.5555555555555556	0.09430669611937784	0.5065822776298832	0.595535156856012	0.10167620119735674	0.6091221875108269	1.0792465455664695	0.09285706864221469	0.6465886143386926	1.4905627952970044	0.056001079274178064	0.5211951480823634	1.5202243501804082	0.11220873133372389	0.5107417140814872	1.5132690470309726	0.07223570769086132	0.7016196741675775	1.552811150444142	-0.0977551099912847	0.5003395531472123	0.5832847845136445	-0.1343195938181416	0.5831172397840184	1.0580904285893762	-0.138312270207963	0.6291808151129158	1.491328206009199	-0.10185075071827213	0.4879032378345229	1.5058737291012418	-0.16140305068825694	0.5172985430827505	1.5119517787444645	-0.1339305160521281	0.6655965195878493	1.542870337881482	0.014425734054361806	0.436509439006192	-0.011564255164425176	0.02088996139932756	0.39183403541705825	-0.23729018942768293	0.016449907564486797	0.35779329736293985	-0.11642794789100512	0.16667846497826022	0.4865496550480164	0.10979427326835145	0.20965761104882558	0.41473194437600974	0.34621215189912213	0.07242735054312932	0.2774866956784172	0.39087136987638377	-0.003617679086192967	0.23462986226756566	0.35309443116031414	-0.03464754317695924	0.22832597853264225	0.38900183079387496	-0.020727179330923724	0.22168318688323344	0.44046144584848174	-0.1487106982150368	0.4716739018079005	0.09119829806706667	-0.21057301225106098	0.396880279339881	0.336609918301226	-0.05161914528384516	0.2168438728319414	0.3709080426126783	0.04023881615652044	0.1990397473469118	0.3509474650243519	0.04649765224050602	0.20141419966940133	0.3752949821607896	0.0007429786289035716	0.19607082299615236	0.43259866724870055
31	0.5740740740740741	0.09274393174924458	0.5048289504367282	0.5951690921753001	0.10165108696961397	0.6104190981620052	1.0799416790674294	0.09409462950469259	0.6472086686890388	1.4932718913732321	0.056180810062728216	0.5220838267134837	1.5202828615752852	0.11314762739245289	0.5119357185774066	1.5152283683312904	0.07342058970924376	0.6891477893306099	1.5501685850778761	-0.09724676304157309	0.5003931263110907	0.5843343664233387	-0.13415975768703392	0.5860336881851225	1.0632640336703105	-0.13816694442205946	0.6308872331005628	1.4951920485544616	-0.100365938182663	0.4821015943144932	1.5031510940583521	-0.16146856560436673	0.5175828084771378	1.5126159764494544	-0.13390068833446944	0.6661854345033792	1.5455547534781497	0.015439567812304576	0.4370873473875607	-0.011848510244596445	0.022243954688500156	0.3924670529191871	-0.2374459717282832	0.01711328767906293	0.36104163740600326	-0.11665674440805637	0.16699513140185668	0.4875672727428523	0.11000405828478459	0.21169517115418784	0.41331588059249647	0.3466161049896983	0.07943464013192053	0.26978794871345113	0.3646397949788873	0.012340455040910409	0.23244131124395034	0.32531868123821667	-0.021074236149692435	0.2120589056116497	0.35195307195926695	-0.014278347436797852	0.21361230684530816	0.4051600040666877	-0.14866839557871755	0.47148483790675194	0.08981834607107608	-0.21100049468103127	0.3842856467359102	0.3308061939271945	-0.05621504942879526	0.2118464124480347	0.35192499539049693	0.04321691223516022	0.19880505879644214	0.32594966045228774	0.050671556784090965	0.18852302819714964	0.34737746738937414	-0.0001972774964883484	0.19593778707009063	0.4104911375570772
32	0.5925925925925926	0.09105441634187901	0.5037641349017692	0.5965786786605313	0.10166341510392002	0.6100726251301739	1.078095066159515	0.09603687766244623	0.6481221023502761	1.4941061979647179	0.056273077706832805	0.5227009252054269	1.5213326834318122	0.11484854948291023	0.5134100108550632	1.516705608065001	0.07537896587194395	0.6814186948330033	1.5473181199822386	-0.1016205195439497	0.5005033780737823	0.5899693782923561	-0.13398656748167803	0.5885963105120667	1.0676451678966605	-0.13832116110827403	0.6323371643530842	1.4993607757380334	-0.09909419147695042	0.478304942211322	1.5029832007307273	-0.1617626671765329	0.5182835531505846	1.5146868213157778	-0.1337338332029716	0.6667587260354997	1.5470505029809387	0.01567845838723987	0.4375206564667118	-0.011837433475236536	0.02380763111998805	0.394145783019484	-0.23733508467812217	0.018018577172536684	0.3623286736615066	-0.11672500121655686	0.16594915025311263	0.48720707480671055	0.1082524961376757	0.21703114456783565	0.405522401212437	0.34675471113845374	0.08650785868967707	0.2538290181635108	0.3319775466448777	0.024581435857461927	0.22025081034443245	0.2931606886517339	-0.0033659257066285257	0.18596608822971078	0.3085625883444496	-0.002938696511755768	0.18874380992390602	0.3581433483736334	-0.14867929490290974	0.4715534255612099	0.08767515752862698	-0.2139183002698893	0.3656762790563991	0.32284593932485145	-0.06079458872896379	0.21133137165592675	0.32409747388402793	0.04535629846864784	0.1985127391929559	0.29511308719885815	0.05376333965578983	0.1724709942875475	0.30824543516178693	-0.0007258690626727824	0.19253820127446147	0.3685666135572344
